<svg width="41" height="40" viewBox="0 0 41 40" fill="none" xmlns="http://www.w3.org/2000/svg">
<path d="M15.5002 23.3335H32.1668L26.4168 15.8335L22.5835 20.8335L20.0002 17.5002L15.5002 23.3335ZM13.8335 30.0002C12.9168 30.0002 12.1321 29.6738 11.4793 29.021C10.8266 28.3682 10.5002 27.5835 10.5002 26.6668V6.66683C10.5002 5.75016 10.8266 4.96544 11.4793 4.31266C12.1321 3.65988 12.9168 3.3335 13.8335 3.3335H33.8335C34.7502 3.3335 35.5349 3.65988 36.1877 4.31266C36.8404 4.96544 37.1668 5.75016 37.1668 6.66683V26.6668C37.1668 27.5835 36.8404 28.3682 36.1877 29.021C35.5349 29.6738 34.7502 30.0002 33.8335 30.0002H13.8335ZM13.8335 26.6668H33.8335V6.66683H13.8335V26.6668ZM7.16683 36.6668C6.25016 36.6668 5.46544 36.3404 4.81266 35.6877C4.15988 35.0349 3.8335 34.2502 3.8335 33.3335V10.0002H7.16683V33.3335H30.5002V36.6668H7.16683Z" fill="#E8EAED"/>
</svg>
