<svg width="31" height="34" viewBox="0 0 31 34" fill="none" xmlns="http://www.w3.org/2000/svg">
<path d="M15.5415 4.45833C18.4859 4.45833 21.2637 5.09028 23.8748 6.35417C26.4859 7.61806 28.6665 9.44444 30.4165 11.8333C30.6109 12.0833 30.6734 12.3056 30.604 12.5C30.5345 12.6944 30.4165 12.8611 30.2498 13C30.0831 13.1389 29.8887 13.2014 29.6665 13.1875C29.4443 13.1736 29.2498 13.0556 29.0831 12.8333C27.5554 10.6667 25.5901 9.00694 23.1873 7.85417C20.7845 6.70139 18.2359 6.125 15.5415 6.125C12.847 6.125 10.3193 6.70139 7.95814 7.85417C5.59703 9.00694 3.63869 10.6667 2.08314 12.8333C1.91647 13.0833 1.72203 13.2222 1.4998 13.25C1.27758 13.2778 1.08314 13.2222 0.916471 13.0833C0.722027 12.9444 0.603971 12.7708 0.562305 12.5625C0.520638 12.3542 0.583138 12.1389 0.749805 11.9167C2.47203 9.55556 4.63175 7.72222 7.22897 6.41667C9.82619 5.11111 12.597 4.45833 15.5415 4.45833ZM15.5415 8.375C19.2915 8.375 22.5137 9.625 25.2081 12.125C27.9026 14.625 29.2498 17.7222 29.2498 21.4167C29.2498 22.8056 28.7568 23.9653 27.7706 24.8958C26.7845 25.8264 25.5831 26.2917 24.1665 26.2917C22.7498 26.2917 21.5345 25.8264 20.5206 24.8958C19.5068 23.9653 18.9998 22.8056 18.9998 21.4167C18.9998 20.5 18.6595 19.7292 17.979 19.1042C17.2984 18.4792 16.4859 18.1667 15.5415 18.1667C14.597 18.1667 13.7845 18.4792 13.104 19.1042C12.4234 19.7292 12.0831 20.5 12.0831 21.4167C12.0831 24.1111 12.8818 26.3611 14.479 28.1667C16.0762 29.9722 18.1387 31.2361 20.6665 31.9583C20.9165 32.0417 21.0831 32.1806 21.1665 32.375C21.2498 32.5694 21.2637 32.7778 21.2081 33C21.1526 33.1944 21.0415 33.3611 20.8748 33.5C20.7081 33.6389 20.4998 33.6806 20.2498 33.625C17.3609 32.9028 14.9998 31.4653 13.1665 29.3125C11.3331 27.1597 10.4165 24.5278 10.4165 21.4167C10.4165 20.0278 10.9165 18.8611 11.9165 17.9167C12.9165 16.9722 14.1248 16.5 15.5415 16.5C16.9581 16.5 18.1665 16.9722 19.1665 17.9167C20.1665 18.8611 20.6665 20.0278 20.6665 21.4167C20.6665 22.3333 21.0137 23.1042 21.7081 23.7292C22.4026 24.3542 23.222 24.6667 24.1665 24.6667C25.1109 24.6667 25.9165 24.3542 26.5831 23.7292C27.2498 23.1042 27.5831 22.3333 27.5831 21.4167C27.5831 18.1944 26.4026 15.4861 24.0415 13.2917C21.6804 11.0972 18.8609 10 15.5831 10C12.3054 10 9.48592 11.0972 7.12481 13.2917C4.76369 15.4861 3.58314 18.1806 3.58314 21.375C3.58314 22.0417 3.64564 22.875 3.77064 23.875C3.89564 24.875 4.19425 26.0417 4.66647 27.375C4.74981 27.625 4.74286 27.8472 4.64564 28.0417C4.54842 28.2361 4.38869 28.375 4.16647 28.4583C3.94425 28.5417 3.72897 28.5347 3.52064 28.4375C3.31231 28.3403 3.16647 28.1806 3.08314 27.9583C2.66647 26.875 2.36786 25.7986 2.1873 24.7292C2.00675 23.6597 1.91647 22.5556 1.91647 21.4167C1.91647 17.7222 3.25675 14.625 5.93731 12.125C8.61786 9.625 11.8193 8.375 15.5415 8.375ZM15.5415 0.375C17.3193 0.375 19.0554 0.590278 20.7498 1.02083C22.4443 1.45139 24.0831 2.06944 25.6665 2.875C25.9165 3.01389 26.0623 3.18056 26.104 3.375C26.1456 3.56944 26.1248 3.76389 26.0415 3.95833C25.9581 4.15278 25.8193 4.30556 25.6248 4.41667C25.4304 4.52778 25.1943 4.51389 24.9165 4.375C23.4443 3.625 21.9234 3.04861 20.354 2.64583C18.7845 2.24306 17.1804 2.04167 15.5415 2.04167C13.9304 2.04167 12.347 2.22917 10.7915 2.60417C9.23592 2.97917 7.74981 3.56944 6.33314 4.375C6.11092 4.51389 5.88869 4.54861 5.66647 4.47917C5.44425 4.40972 5.27758 4.26389 5.16647 4.04167C5.05536 3.81944 5.02758 3.61806 5.08314 3.4375C5.13869 3.25694 5.27758 3.09722 5.49981 2.95833C7.05536 2.125 8.68036 1.48611 10.3748 1.04167C12.0693 0.597222 13.7915 0.375 15.5415 0.375ZM15.5415 12.4167C18.1248 12.4167 20.347 13.2847 22.2081 15.0208C24.0693 16.7569 24.9998 18.8889 24.9998 21.4167C24.9998 21.6667 24.9234 21.8681 24.7706 22.0208C24.6179 22.1736 24.4165 22.25 24.1665 22.25C23.9443 22.25 23.7498 22.1736 23.5831 22.0208C23.4165 21.8681 23.3331 21.6667 23.3331 21.4167C23.3331 19.3333 22.5623 17.5903 21.0206 16.1875C19.479 14.7847 17.6526 14.0833 15.5415 14.0833C13.4304 14.0833 11.6179 14.7847 10.104 16.1875C8.59008 17.5903 7.83314 19.3333 7.83314 21.4167C7.83314 23.6667 8.22203 25.5764 8.99981 27.1458C9.77758 28.7153 10.9165 30.2917 12.4165 31.875C12.5831 32.0417 12.6665 32.2361 12.6665 32.4583C12.6665 32.6806 12.5831 32.875 12.4165 33.0417C12.2498 33.2083 12.0554 33.2917 11.8331 33.2917C11.6109 33.2917 11.4165 33.2083 11.2498 33.0417C9.61092 31.3194 8.35397 29.5625 7.47897 27.7708C6.60397 25.9792 6.16647 23.8611 6.16647 21.4167C6.16647 18.8889 7.08314 16.7569 8.91647 15.0208C10.7498 13.2847 12.9581 12.4167 15.5415 12.4167ZM15.4998 20.5833C15.7498 20.5833 15.9512 20.6667 16.104 20.8333C16.2568 21 16.3331 21.1944 16.3331 21.4167C16.3331 23.5 17.0831 25.2083 18.5831 26.5417C20.0831 27.875 21.8331 28.5417 23.8331 28.5417C23.9998 28.5417 24.2359 28.5278 24.5415 28.5C24.847 28.4722 25.1665 28.4306 25.4998 28.375C25.7498 28.3194 25.9651 28.3542 26.1456 28.4792C26.3262 28.6042 26.4443 28.7917 26.4998 29.0417C26.5554 29.2639 26.5137 29.4583 26.3748 29.625C26.2359 29.7917 26.0554 29.9028 25.8331 29.9583C25.3331 30.0972 24.8956 30.1736 24.5206 30.1875C24.1456 30.2014 23.9165 30.2083 23.8331 30.2083C21.3609 30.2083 19.2151 29.375 17.3956 27.7083C15.5762 26.0417 14.6665 23.9444 14.6665 21.4167C14.6665 21.1944 14.7429 21 14.8956 20.8333C15.0484 20.6667 15.2498 20.5833 15.4998 20.5833Z" fill="#E8EAED"/>
</svg>
