<svg width="27" height="34" viewBox="0 0 27 34" fill="none" xmlns="http://www.w3.org/2000/svg">
<path d="M10.9998 22.8335H15.9998V18.6668H20.1665V13.6668H15.9998V9.50016H10.9998V13.6668H6.83317V18.6668H10.9998V22.8335ZM13.4998 33.6668C9.63873 32.6946 6.45123 30.4793 3.93734 27.021C1.42345 23.5627 0.166504 19.7224 0.166504 15.5002V5.3335L13.4998 0.333496L26.8332 5.3335V15.5002C26.8332 19.7224 25.5762 23.5627 23.0623 27.021C20.5484 30.4793 17.3609 32.6946 13.4998 33.6668ZM13.4998 30.1668C16.3887 29.2502 18.7776 27.4168 20.6665 24.6668C22.5554 21.9168 23.4998 18.8613 23.4998 15.5002V7.62516L13.4998 3.87516L3.49984 7.62516V15.5002C3.49984 18.8613 4.44428 21.9168 6.33317 24.6668C8.22206 27.4168 10.6109 29.2502 13.4998 30.1668Z" fill="#E8EAED"/>
</svg>
