<svg width="31" height="30" viewBox="0 0 31 30" fill="none" xmlns="http://www.w3.org/2000/svg">
<path d="M13.8333 30V16.7083C12.0556 16.7083 10.3472 16.3681 8.70833 15.6875C7.06944 15.0069 5.625 14.0417 4.375 12.7917C3.125 11.5417 2.16667 10.0972 1.5 8.45833C0.833333 6.81944 0.5 5.11111 0.5 3.33333V0H3.83333C5.58333 0 7.27778 0.340278 8.91667 1.02083C10.5556 1.70139 12 2.66667 13.25 3.91667C14.1111 4.77778 14.8264 5.72222 15.3958 6.75C15.9653 7.77778 16.4028 8.875 16.7083 10.0417C16.8472 9.84722 17 9.65972 17.1667 9.47917C17.3333 9.29861 17.5139 9.11111 17.7083 8.91667C18.9583 7.66667 20.4028 6.70139 22.0417 6.02083C23.6806 5.34028 25.3889 5 27.1667 5H30.5V8.33333C30.5 10.1111 30.1597 11.8194 29.4792 13.4583C28.7986 15.0972 27.8333 16.5417 26.5833 17.7917C25.3333 19.0417 23.8958 20 22.2708 20.6667C20.6458 21.3333 18.9444 21.6667 17.1667 21.6667V30H13.8333ZM13.8333 13.3333C13.8333 12 13.5764 10.7292 13.0625 9.52083C12.5486 8.3125 11.8194 7.23611 10.875 6.29167C9.93056 5.34722 8.85417 4.61806 7.64583 4.10417C6.4375 3.59028 5.16667 3.33333 3.83333 3.33333C3.83333 4.66667 4.08333 5.94444 4.58333 7.16667C5.08333 8.38889 5.80556 9.47222 6.75 10.4167C7.69444 11.3611 8.77778 12.0833 10 12.5833C11.2222 13.0833 12.5 13.3333 13.8333 13.3333ZM17.1667 18.3333C18.5 18.3333 19.7708 18.0833 20.9792 17.5833C22.1875 17.0833 23.2639 16.3611 24.2083 15.4167C25.1528 14.4722 25.8819 13.3889 26.3958 12.1667C26.9097 10.9444 27.1667 9.66667 27.1667 8.33333C25.8333 8.33333 24.5556 8.59028 23.3333 9.10417C22.1111 9.61806 21.0278 10.3472 20.0833 11.2917C19.1389 12.2361 18.4167 13.3125 17.9167 14.5208C17.4167 15.7292 17.1667 17 17.1667 18.3333Z" fill="#E8EAED"/>
</svg>
