<svg width="37" height="28" viewBox="0 0 37 28" fill="none" xmlns="http://www.w3.org/2000/svg">
<path d="M8.49984 27.3332C7.11095 27.3332 5.93039 26.8471 4.95817 25.8748C3.98595 24.9026 3.49984 23.7221 3.49984 22.3332H0.166504V3.99984C0.166504 3.08317 0.492893 2.29845 1.14567 1.64567C1.79845 0.992893 2.58317 0.666504 3.49984 0.666504H26.8332V7.33317H31.8332L36.8332 13.9998V22.3332H33.4998C33.4998 23.7221 33.0137 24.9026 32.0415 25.8748C31.0693 26.8471 29.8887 27.3332 28.4998 27.3332C27.1109 27.3332 25.9304 26.8471 24.9582 25.8748C23.9859 24.9026 23.4998 23.7221 23.4998 22.3332H13.4998C13.4998 23.7221 13.0137 24.9026 12.0415 25.8748C11.0693 26.8471 9.88873 27.3332 8.49984 27.3332ZM8.49984 23.9998C8.97206 23.9998 9.36789 23.8401 9.68734 23.5207C10.0068 23.2012 10.1665 22.8054 10.1665 22.3332C10.1665 21.8609 10.0068 21.4651 9.68734 21.1457C9.36789 20.8262 8.97206 20.6665 8.49984 20.6665C8.02762 20.6665 7.63178 20.8262 7.31234 21.1457C6.99289 21.4651 6.83317 21.8609 6.83317 22.3332C6.83317 22.8054 6.99289 23.2012 7.31234 23.5207C7.63178 23.8401 8.02762 23.9998 8.49984 23.9998ZM3.49984 18.9998H4.83317C5.30539 18.4998 5.84706 18.0971 6.45817 17.7915C7.06928 17.4859 7.74984 17.3332 8.49984 17.3332C9.24984 17.3332 9.93039 17.4859 10.5415 17.7915C11.1526 18.0971 11.6943 18.4998 12.1665 18.9998H23.4998V3.99984H3.49984V18.9998ZM28.4998 23.9998C28.9721 23.9998 29.3679 23.8401 29.6873 23.5207C30.0068 23.2012 30.1665 22.8054 30.1665 22.3332C30.1665 21.8609 30.0068 21.4651 29.6873 21.1457C29.3679 20.8262 28.9721 20.6665 28.4998 20.6665C28.0276 20.6665 27.6318 20.8262 27.3123 21.1457C26.9929 21.4651 26.8332 21.8609 26.8332 22.3332C26.8332 22.8054 26.9929 23.2012 27.3123 23.5207C27.6318 23.8401 28.0276 23.9998 28.4998 23.9998ZM26.8332 15.6665H33.9165L30.1665 10.6665H26.8332V15.6665Z" fill="#E8EAED"/>
</svg>
